<svg xmlns="http://www.w3.org/2000/svg" xmlns:xlink="http://www.w3.org/1999/xlink" version="1.1" x="0px" y="0px" viewBox="0 0 100 125" enable-background="new 0 0 100 100" xml:space="preserve"><g><path fill-rule="evenodd" clip-rule="evenodd" d="M71.566,26.429c1.385,8.519-1.588,17.05-4.182,23.208   c-4.248-2.792-8.303-5.776-13.591-7.526c1.166-3.991,1.856-8.458,1.882-13.59C61.152,28.003,66.498,27.356,71.566,26.429z"/><path fill-rule="evenodd" clip-rule="evenodd" d="M81.393,25.593c2.342,12.574-2.283,23.084-9.408,28.226   c-1.254-1.396-2.846-2.451-4.182-3.764c2.916-6.632,5.008-14.088,4.809-23.835C75.119,25.639,78.391,25.018,81.393,25.593z"/><path fill-rule="evenodd" clip-rule="evenodd" d="M82.02,25.802c7.547,2.412,12.244,5.407,11.5,16.517   c-0.104,1.527-0.518,2.974-0.629,4.6c-0.445,6.558,2.58,12.527-0.627,17.144c-0.828-1.453-1.977-2.635-2.299-4.391   c-0.748-4.068,3.232-9.484,0.209-12.753C87.18,48.586,85.494,53.98,86.828,58c-1.74,2.238-5.045,4.006-8.154,4.182   c0.166-1.965,1.404-3.551,2.092-5.227c1.152-2.812,1.988-5.418,1.672-9.828c-0.135-1.882-1.201-3.646-1.254-5.436   c-0.043-1.438,0.803-3.032,1.045-4.6C82.803,33.355,82.572,29.64,82.02,25.802z"/><path fill-rule="evenodd" clip-rule="evenodd" d="M80.766,42.528c2.488,6.171,0.826,14.503-2.928,18.4   c-1.137-2.906-3.555-4.529-5.227-6.9C76.346,51.211,78.93,47.244,80.766,42.528z"/><path fill-rule="evenodd" clip-rule="evenodd" d="M85.365,76.816c-1.598,0.369-3.465,0.568-4.809-0.209   c1.26-4.418,0.92-10.188-1.256-13.381c2.537-1.506,5.826-2.258,7.736-4.391c2.381,2.316-0.287,7.25-0.209,10.873   c0.027,1.262,0.836,2.463,0.627,3.553C87.172,74.748,85.207,75.35,85.365,76.816z"/><path fill-rule="evenodd" clip-rule="evenodd" d="M11.229,19.808c0.757,1.194,1.556,2.103,2.701,2.91   c0.032-1.988,0.202-4.071,0.976-5.906c0.997,1.303,1.436,3.164,2.091,4.809c4.943,1.259,10.147,2.258,14.635,3.973   c-5.897,3.65-10.722,8.374-13.59,15.053c-3.554-0.729-6.003-3.333-10.454-2.509c-0.836-1.533-2.284-2.335-3.783-3.206   c-0.064-1.04-0.12-2.074,0.229-2.857c3.005-2.64,5.513-5.778,8.154-8.781C11.577,21.899,10.846,20.801,11.229,19.808z"/><path fill-rule="evenodd" clip-rule="evenodd" d="M35.604,27.056c-2.919,3.841-5.267,8.253-5.436,14.845   c-3.403,0.987-5.878,2.903-8.572,4.6c-0.611-2.386-1.867-4.127-3.136-5.854c3.177-6.3,7.54-11.416,13.799-14.635   C33.441,26.292,34.421,26.775,35.604,27.056z"/><path fill-rule="evenodd" clip-rule="evenodd" d="M45.013,28.938c-0.74,3.373-1.533,6.691-1.464,10.872   c-5.058-0.18-9.376,0.38-12.754,1.882c0.003-5.643,2.4-11.816,5.646-14.218C39.281,27.979,41.695,28.91,45.013,28.938z"/><path fill-rule="evenodd" clip-rule="evenodd" d="M55.049,28.52c0.207,5.226-0.708,9.329-1.674,13.381   c-2.765-1.068-5.911-1.755-9.408-2.091c0.054-3.271,0.853-7.475,1.463-10.872C48.881,29.042,51.967,28.783,55.049,28.52z"/><path fill-rule="evenodd" clip-rule="evenodd" d="M42.294,40.228c0.593,3.449,1.599,6.485,2.718,9.408   c-3.343-1.215-6.647,0.381-6.272,4.182c-3.351,1.35-5.21-2.104-6.69-4.6c-1.344-2.265-2.396-4.526-2.718-6.481   C32.949,41.198,37.108,40.199,42.294,40.228z"/><path fill-rule="evenodd" clip-rule="evenodd" d="M42.922,40.228c9.295-0.025,14.83,4.823,17.562,10.663   c-4.992,1.117-10.41-0.098-14.636-1.044C44.443,47.069,43.393,43.938,42.922,40.228z"/><path fill-rule="evenodd" clip-rule="evenodd" d="M35.604,54.445c-1.848,1.289-3.672,2.6-4.809,4.6   c-4.38-2.52-7.708-6.092-8.99-11.708c1.713-1.979,4.406-2.981,6.69-4.391C30.333,47.311,32.206,51.641,35.604,54.445z"/><path fill-rule="evenodd" clip-rule="evenodd" d="M55.049,43.155c6.979,2.639,12.143,7.093,17.354,11.5   c-3.725,0.039-5.93,2.713-7.736,3.973C62.67,52.26,59.334,47.232,55.049,43.155z"/><path fill-rule="evenodd" clip-rule="evenodd" d="M45.849,58.836c-1.578,2.416-3.741,4.738-4.181,8.572   c-0.248,2.16,0.928,4.457,0.418,6.273c-0.345,1.227-2.274,1.566-1.673,3.135c-1.986,0.523-3.792,0.668-5.436,0   c2.116-6.648-0.058-13.602-3.972-17.145C33.36,53.848,42.637,52.266,45.849,58.836z"/><path fill-rule="evenodd" clip-rule="evenodd" d="M64.039,58.627c-4.793-1.021-12.738-0.91-17.563,0   c-1.938-2.104-3.78-4.305-7.109-5.018c-0.205-5.393,4.818-3.679,8.991-2.719c4.425,1.02,8.364,1.453,12.335,0.418   C62.232,53.324,63.256,55.855,64.039,58.627z"/></g></svg>