<svg xmlns="http://www.w3.org/2000/svg" xmlns:xlink="http://www.w3.org/1999/xlink" version="1.1" x="0px" y="0px" viewBox="0 0 100 125" enable-background="new 0 0 100 100" xml:space="preserve"><g><rect x="-192" width="185" height="99"/><rect y="-36" width="100" height="30"/><text transform="matrix(1 0 0 1 66 -19.5)" fill="#000000" font-family="'Helvetica'" font-size="2.4">http://thenounproject.com</text><text transform="matrix(1 0 0 1 7.166 -24.5)"><tspan x="0" y="0" fill="#000000" font-family="'Helvetica-Bold'" font-size="6.1578">The Noun Project</tspan><tspan x="1.12" y="4.8" fill="#000000" font-family="'Helvetica-Bold'" font-size="4">Icon Template</tspan></text><text transform="matrix(1 0 0 1 -178.5 10.5)" fill="#000000" font-family="'Helvetica-Bold'" font-size="6.1578">Reminders</text><line fill="#000000" stroke="#FFFFFF" stroke-miterlimit="10" x1="8" y1="-14.5" x2="18" y2="-14.5"/><line fill="#000000" stroke="#FFFFFF" stroke-miterlimit="10" x1="-179" y1="16.5" x2="-162" y2="16.5"/><g><g><g><rect x="-170.802" y="31.318" fill="#000000" width="8.721" height="8.642"/><path fill="#000000" d="M-164.455,42.312h4.747v-4.703h-4.747V42.312z M-159.266,42.749h-5.63V37.17h5.63V42.749      L-159.266,42.749z M-166.221,44.062h8.279v-8.203h-8.279V44.062L-166.221,44.062z M-157.5,44.5h-9.163v-9.079h9.163V44.5      L-157.5,44.5z"/><polygon fill="#000000" points="-166.149,44.133 -166.292,43.991 -158.013,35.787 -157.871,35.929     "/></g></g></g><rect x="-179" y="58" fill="none" width="35" height="32.5"/><text transform="matrix(1 0 0 1 -179 60.1299)"><tspan x="0" y="0" fill="#000000" font-family="'Helvetica-Bold'" font-size="3">Strokes</tspan><tspan x="0" y="5" fill="#000000" font-family="'Helvetica'" font-size="2.4">Try to keep strokes at 4px</tspan><tspan x="0" y="10" fill="#000000" font-family="'Helvetica'" font-size="2.4">Minimum stroke weight is 2px</tspan><tspan x="0" y="14.5" fill="#000000" font-family="'Helvetica'" font-size="2.4">For thicker strokes use even </tspan><tspan x="0" y="17.5" fill="#000000" font-family="'Helvetica'" font-size="2.4">numbers: 6px, 8px etc.</tspan><tspan x="0" y="22" fill="#000000" font-family="'Helvetica-Bold'" font-size="2.4">Remember to expand strokes </tspan><tspan x="0" y="25" fill="#000000" font-family="'Helvetica-Bold'" font-size="2.4">before saving as an SVG </tspan></text><rect x="-136.5" y="58" fill="none" width="35" height="32.5"/><text transform="matrix(1 0 0 1 -136.5 60.1299)"><tspan x="0" y="0" fill="#000000" font-family="'Helvetica-Bold'" font-size="3">Size</tspan><tspan x="0" y="5" fill="#000000" font-family="'Helvetica'" font-size="2.4">Cannot be wider or taller than </tspan><tspan x="0" y="8.5" fill="#000000" font-family="'Helvetica'" font-size="2.4">100px (artboard size)</tspan><tspan x="0" y="13.5" fill="#000000" font-family="'Helvetica'" font-size="2.4">Scale your icon to fill as much of </tspan><tspan x="0" y="16.5" fill="#000000" font-family="'Helvetica'" font-size="2.4">the artboard as possible</tspan></text><rect x="-94" y="58" fill="none" width="35" height="32.5"/><text transform="matrix(1 0 0 1 -94 60.1299)"><tspan x="0" y="0" fill="#000000" font-family="'Helvetica-Bold'" font-size="3">Ungroup</tspan><tspan x="0" y="5" fill="#000000" font-family="'Helvetica'" font-size="2.4">If your design has more than one </tspan><tspan x="0" y="8" fill="#000000" font-family="'Helvetica'" font-size="2.4">shape, make sure to ungroup</tspan></text><rect x="-50" y="58" fill="none" width="35" height="32.5"/><text transform="matrix(1 0 0 1 -50 60.1299)"><tspan x="0" y="0" fill="#000000" font-family="'Helvetica-Bold'" font-size="3">Save as</tspan><tspan x="0" y="5" fill="#000000" font-family="'Helvetica'" font-size="2.4">Save as .SVG and make sure “Use </tspan><tspan x="0" y="8" fill="#000000" font-family="'Helvetica'" font-size="2.4">Artboards” is checked</tspan></text><text transform="matrix(1.0074 0 0 1 -125.542 30.5933)" fill="#000000" font-family="'Helvetica'" font-size="2.5731">100px</text><text transform="matrix(1.0074 0 0 1 -41 39)" fill="#000000" font-family="'Helvetica-Bold'" font-size="5.1462">.SVG</text><rect x="-126.514" y="34.815" fill="#000000" width="10.261" height="10.185"/><rect x="-126.477" y="31.766" fill="#000000" width="0.522" height="2.337"/><rect x="-116.813" y="31.766" fill="#000000" width="0.523" height="2.337"/><rect x="-127" y="32.337" fill="#000000" width="11.233" height="0.572"/><g><rect x="-83.805" y="33.844" fill="#000000" width="10.305" height="10.156"/><rect x="-76.809" y="28.707" fill="#000000" width="3.308" height="3.261"/></g><rect x="-178.5" y="22.5" fill="#000000" stroke="#FFFFFF" stroke-miterlimit="10" width="30" height="30"/><rect x="-136.5" y="22.5" fill="#000000" stroke="#FFFFFF" stroke-miterlimit="10" width="30" height="30"/><rect x="-93.5" y="22.5" fill="#000000" stroke="#FFFFFF" stroke-miterlimit="10" width="30" height="30"/><rect x="-49.5" y="22.5" fill="#000000" stroke="#FFFFFF" stroke-miterlimit="10" width="30" height="30"/></g><g><path d="M26.802,36.151c-0.317-1.838-0.717-4.148-1.117-6.425c-2.741-0.376-7.371-0.979-8.495-0.981   c-0.059,0.003-0.11,0.006-0.141,0.012c-0.816,0.121-6.177,2.735-6.766,3.391c-0.24,0.406-0.5,3.491-0.699,6.444l12.137-0.443   L26.802,36.151z"/><path d="M21.962,38.951c-0.033,0.012-0.09,0.03-0.124,0.03L9.531,39.439c-0.089,1.326-0.162,2.57-0.213,3.466   c-0.116,2.028-0.17,2.869-0.215,3.069c-0.031,0.62,2.146,6.177,2.407,6.624c0.205,0.335,0.186,0.876,0.113,1.436l5.66-2.365   c0,0,0.724-0.341,1.509-0.341c0.559,0,1.018,0.171,1.35,0.501c0.453-0.463,0.9-0.91,1.336-1.34c5.035-4.95,5.941-10.55,5.95-10.603   c-0.015-0.117-0.196-1.241-0.479-2.894L21.962,38.951z"/><path d="M49.724,46.939l2.773-4.766c-2.141,0.137-9.198,0.578-13.741,0.678c-4.292,0.097-7.418-0.947-8.624-1.43   c0.021,0.688-0.089,1.871-0.858,3.059c-0.959,1.468-2.213,3.351-2.542,3.847c0.136,0.571,0.608,2.65,0.612,4.134l1.608,1.214   c5.65,2.016,10.84,3.042,15.422,3.038c4.341,0.004,6.847-0.943,7.611-1.284c-0.429-1.377-1.831-6.518-2.293-8.225   C49.668,47.113,49.679,47.022,49.724,46.939z"/><path d="M39.779,40.48c0.08-3.406-1.261-8.435-1.686-9.924c-4.127-0.488-8.255-1-9.653-1.174c0.785,3.423,1.713,8.771,1.903,9.89   C32.756,40.063,36.682,40.368,39.779,40.48z"/><path d="M49.771,40.28c2.568-0.275,3.974-1.095,5.463-1.959c0.546-0.32,1.164-0.682,1.858-1.017   c2.089-1.007,6.936-2.919,8.477-3.521l-1.282-4.109c-1.603,0.31-5.565,1.059-6.506,1.126c-0.165,0.012-0.5,0.045-0.948,0.086   c-1.97,0.185-6.076,0.57-9.316,0.57c-0.959,0-1.771-0.035-2.43-0.1c-1.677-0.183-3.854-0.43-6.089-0.695   c0.505,1.836,1.693,6.548,1.62,9.848c1.038,0.024,1.941,0.033,2.612,0.033C45.791,40.54,48.298,40.442,49.771,40.28z"/><path d="M17.626,52.435l-6.166,2.576c-0.202,0.952-0.688,3.132-1.446,6.512l0.697,0.621c0.999-1.15,5.008-5.753,8.844-9.715   c-0.179-0.181-0.43-0.266-0.765-0.266C18.237,52.163,17.684,52.404,17.626,52.435z"/><path d="M59.833,62.879l1.731-0.091c0.098-0.962,0.551-3.719,2.583-7.225c-1.825,0.45-4.792,0.553-6.186,0.571   C58.874,58.475,59.627,60.899,59.833,62.879z"/><path d="M66.563,36.216l-8.612,3.397l-4.06,7.809c0.506,0.928,2.259,4.23,3.742,7.883c2.47-0.023,6.264-0.27,7.212-0.874   c0.982-1.508,2.253-3.123,3.905-4.773l4.595-3.761c-0.602-0.501-1.838-1.551-3.7-3.235C67.437,40.669,66.751,37.501,66.563,36.216z   "/><path d="M67.251,29.222c0.386,1.281,1.476,4.968,2.436,8.244c0.929,3.18,4.656,5.05,5.865,5.579   c1.046-2.666,5.358-6.49,6.776-7.693l-7.777-8.536C72.58,28.362,68.701,29.021,67.251,29.222z"/><path d="M96.164,29.694c-0.064-0.067-0.353-0.473-0.659-0.909c-2.386-3.358-5.044-6.876-6.671-7.502   c-1.221-0.468-1.836-0.845-2.341-1.153c-0.4-0.245-0.777-0.474-1.345-0.671c-0.238-0.085-0.516-0.127-0.813-0.127   c-1.054,0-2.183,0.513-2.473,0.651c-0.087,0.008-0.312,0.025-0.623,0.025c-1.141,0-3.335-0.218-5.24-1.676   c-0.065-0.047-0.153-0.07-0.236-0.067c-0.441,0.037-1.224,0.174-1.458,0.679c-0.094,0.191-0.137,0.509,0.17,0.933   c0.559,0.759,1.057,1.468,1.298,1.814c-1.927,1.471-5.115,3.642-6.086,3.642c-0.475,0-1.145,0.045-1.965,0.1   c-1.142,0.077-2.564,0.171-4.018,0.171c-0.646,0-1.25-0.018-1.8-0.056c-1.477-0.1-3.271,0.35-5.169,0.833   c-1.999,0.514-4.268,1.094-6.544,1.094c-2.183,0-6.556-0.389-10.789-0.771c-3.848-0.344-8.206-0.734-10.244-0.734   c-0.127,0-0.25,0.006-0.362,0.006c-1.406,0.046-2.816-0.147-4.358-0.359c-1.465-0.193-2.983-0.4-4.556-0.4   c-0.959,0-1.844,0.074-2.709,0.228c-3.56,0.629-11.948,2.882-13.036,10.19c-0.701,4.751,0.183,8.225,0.771,10.53   c0.253,0.994,0.453,1.783,0.453,2.364c0,1.096,0.723,2.315,1.43,3.5c0.664,1.13,1.297,2.194,1.247,3.016   c-0.053,0.788-0.659,1.991-1.307,3.273c-0.782,1.542-1.594,3.136-1.594,4.351c0,0.6,0.054,1.271,0.105,1.986   c0.136,1.803,0.289,3.847-0.394,4.937c-1.118,1.782-1.019,5.739,0.686,7.815c1.468,1.783,1.968,3.665,2.053,4.024   c0.036,0.139,0.156,0.243,0.297,0.256L11.233,82c0.009,0,0.021,0,0.033,0c0.159,0,0.301-0.111,0.33-0.277   c0.081-0.402,0.417-2.534-0.939-4.635c-1.376-2.139-1.412-5.364-0.649-7.253c0.091-0.215,0.185-0.465,0.291-0.739   c0.809-2.103,2.161-5.62,4.952-7.38c0.08-0.046,0.156-0.1,0.236-0.149c0.772,1.674,3.392,7.709,3.021,12.31   c-0.003,0.041,0,0.086,0.011,0.126c0.142,0.468,0.892,2.821,1.935,3.263c0.565,0.247,0.859,0.788,1.113,1.264   c0.156,0.295,0.29,0.542,0.476,0.722l1.012,0.979c0.016,0.006,0.972,0.809,1.854,0.809c0.732,0,1.559-0.269,1.715-0.32   c0.125-0.045,0.222-0.158,0.227-0.295c0.052-0.611,0.241-3.717-0.864-4.782c-1.253-1.205-2.924-3.276-2.924-7.3   c0-4.399,0.718-7.092,2.249-8.471c1.316-1.186,2.227-2.172,2.563-2.547c1.255,0.559,8.529,3.658,15.759,3.366   c6.776-0.276,10.771-1.435,11.765-1.755c0.785,1.709,2.019,4.683,2.101,5.993c0.015,0.307,0.046,0.678,0.079,1.112l0.012,0.124   c0.179,2.194,0.45,5.512-0.079,7.129c-0.735,2.239-0.288,5.539-0.238,5.909c0.111,0.745,0.768,1.445,0.961,1.645   c0.026,0.024,0.057,0.047,0.089,0.064c0.291,0.147,1.788,0.879,2.677,0.879c0.512,0,0.994-0.234,1.329-0.643   c0.423-0.527,0.564-1.289,0.388-2.15c-0.182-0.885-0.564-1.763-0.87-2.468c-0.237-0.56-0.465-1.089-0.465-1.335   c0-0.437,0.228-2.412,0.424-4.07l0.105-0.247c0.282,1.378,0.594,3.045,0.594,3.354c0,0.269,0.198,0.663,0.542,1.338   c0.361,0.704,0.858,1.672,0.799,2.166c-0.198,1.724,0.23,2.824,1.274,3.279c0.962,0.424,1.956,0.456,2.503,0.066   c0.286-0.198,0.611-0.604,0.554-1.405c-0.13-1.895-0.577-3.009-1.541-3.835c-0.912-0.773-1.466-3.604-1.143-4.859   c0.124-0.476,0.201-1.381,0.295-2.541c0.167-2.012,0.4-4.771,1.041-6.535c0.776-2.159,1.424-3.624,1.665-4.153   c0.141,0.033,0.317,0.057,0.535,0.057c0.953,0,2.908-0.519,5.335-3.98c1.583-2.253,2.362-4.294,3.125-6.271   c0.882-2.3,1.717-4.478,3.756-6.55c1.279-1.304,2.026-2.225,2.573-2.9c0.794-0.975,1-1.207,1.541-1.207   c0.208,0,0.471,0.033,0.874,0.112c2.471,0.475,3.241,0.536,4.2,0.432c0.927-0.097,1.22-0.116,1.985,0.195   c0.799,0.332,2.43-0.198,2.935-0.565c0.083-0.062,0.189-0.087,0.337-0.132c0.435-0.127,1.094-0.317,1.964-1.656   C98.847,33.451,96.613,30.121,96.164,29.694z M27.743,28.76c0.074-0.086,0.188-0.127,0.298-0.111   c0.303,0.038,5.094,0.632,9.938,1.208c0.276,0.031,0.548,0.065,0.814,0.098c2.333,0.277,4.622,0.538,6.368,0.723   c0.624,0.068,1.424,0.104,2.354,0.101c3.206,0,7.288-0.385,9.253-0.568c0.455-0.044,0.792-0.076,0.965-0.088   c0.771-0.056,3.981-0.642,6.723-1.174c0.165-0.035,0.339,0.067,0.39,0.232l1.468,4.704c0.049,0.17-0.039,0.355-0.204,0.419   c-1.064,0.414-6.493,2.537-8.724,3.612c-0.664,0.33-1.271,0.677-1.809,0.989c-1.556,0.905-3.023,1.759-5.732,2.053   c-0.541,0.06-1.219,0.111-1.983,0.147c-1.353,0.076-2.981,0.117-4.629,0.117c-0.762,0-1.827-0.012-3.048-0.047   c-3.185-0.104-7.42-0.4-10.023-1.247c-0.081-0.023-0.158-0.051-0.229-0.076c-0.118-0.042-0.207-0.142-0.224-0.266   c-0.048-0.276-1.169-6.854-2.042-10.521C27.641,28.957,27.673,28.839,27.743,28.76z M21.955,50.975   c-0.482,0.474-1.771,1.836-1.824,1.838c0,0.003-8.918,9.78-9.133,10.037c-0.062,0.067-0.143,0.11-0.234,0.116   c-0.006,0-0.016,0-0.021,0c-0.082,0-0.164-0.031-0.224-0.084L9.41,61.894c-0.092-0.08-0.132-0.207-0.105-0.323   c0.427-1.894,1.488-7.184,1.594-7.23c0.003-0.035,0.161-1.17,0.033-1.382c-0.024-0.042-2.671-6.31-2.489-7.13   c0.035-0.171,0.112-1.521,0.201-2.953c0.075-1.312,0.146-2.482,0.21-3.53c0.019-0.223,0.034-0.443,0.046-0.658   c0.32-4.771,0.566-6.641,0.882-6.988c0.673-0.754,6.215-3.472,7.164-3.619c0.057-0.006,0.134-0.011,0.244-0.011   c1.472,0,8.084,0.917,8.833,1.023c0.145,0.017,0.262,0.135,0.288,0.277c0.233,1.311,1.795,10.435,1.792,10.559   C28.103,39.987,27.143,45.88,21.955,50.975z M52.563,55.899c-0.105,0.063-2.724,1.494-8.188,1.494   c-4.677,0-9.959-1.042-15.701-3.098c-0.036-0.01-0.062-0.026-0.088-0.044l-1.788-1.353c-0.086-0.064-0.136-0.172-0.133-0.277   c0.038-1.602-0.621-4.248-0.629-4.275c-0.021-0.094-0.004-0.195,0.05-0.271c0-0.003,1.505-2.262,2.617-3.966   c1.013-1.559,0.709-3.144,0.706-3.158c-0.029-0.129,0.021-0.258,0.124-0.335c0.1-0.079,0.241-0.098,0.357-0.041   c0,0,0.016,0.008,0.043,0.023c0.405,0.186,3.854,1.68,8.807,1.57c2.688-0.059,6.246-0.235,9.155-0.4   c2.903-0.161,5.149-0.312,5.197-0.314c0.12-0.015,0.247,0.056,0.312,0.161c0.065,0.107,0.065,0.241,0.003,0.349l-3.021,5.193   c0.872,3.219,2.186,7.983,2.325,8.301C52.774,55.619,52.715,55.817,52.563,55.899z M74.092,46.157l-4.888,4.001   c-1.526,1.528-3.653,4.429-3.653,4.429c0.021,0.063-0.411,0.639-0.411,0.639c-2.63,4.208-2.895,7.436-2.918,7.906   c-0.009,0.173-0.149,0.314-0.323,0.32l-2.359,0.118c-0.006,0.005-0.009,0.005-0.018,0.005c-0.177-0.002-0.324-0.138-0.338-0.317   c-0.15-2.012-0.968-4.61-1.957-7.117c-0.217-0.012-3.879-8.302-4.015-8.551c-0.059-0.098-0.059-0.216-0.003-0.315l4.201-8.089   c0.034-0.076,0.1-0.128,0.176-0.158l9.133-3.599c0.097-0.043,0.209-0.037,0.297,0.022c0.091,0.053,0.153,0.149,0.165,0.255   c0.07,0.703,0.564,4.328,2.921,6.451c2.297,2.076,3.638,3.183,3.99,3.476c0.079,0.066,0.124,0.16,0.124,0.264   C74.216,45.998,74.174,46.093,74.092,46.157z M83.034,35.639c-0.632,0.529-6.171,5.225-6.953,7.954   c-0.029,0.092-0.091,0.171-0.177,0.212c-0.05,0.022-0.1,0.034-0.152,0.034c-0.042,0-0.084-0.005-0.124-0.023   c-0.906-0.357-5.48-2.337-6.592-6.158c-1.092-3.718-2.35-7.96-2.55-8.63c-0.029-0.095-0.012-0.2,0.041-0.279   c0.056-0.086,0.146-0.142,0.248-0.15c0.57-0.07,5.617-0.715,7.576-2.507c0.067-0.058,0.153-0.1,0.247-0.087   c0.088,0.006,0.174,0.047,0.235,0.11l8.231,9.037c0.063,0.07,0.098,0.158,0.093,0.253C83.148,35.496,83.104,35.583,83.034,35.639z"/></g></svg>